# xmcd
#
# Track frame offsets: 
#        150
#        27214
#        46519
#        59359
#        90201
#        114604
#        138766
#        177057
#        215284
#        241770
#        262609
#        267373
#        282457
#
# Disc length: 4070 seconds
#
# Revision: 0
# Processed by: cddbd v1.5.2PL0 Copyright (c) Steve Scherf et al.
# Submitted via: ExactAudioCopy v0.99pb3
#
DISCID=a00fe40d
DTITLE=Various Artist - Talkin' Loud But Sayin' Something (A New Orleans Bras
DTITLE=s Band Mixtape)
DYEAR=2006
DGENRE=Mixtape - Brass
TTITLE0=Rebirth Brass Band - The Law
TTITLE1=The Hot 8 Brass Band - E Flat Blues
TTITLE2=The Hot 8 Brass Band - Skeet Skeet
TTITLE3=Rebirth Brass Band - Talkin'
TTITLE4=The Hot 8 Brass Band - It's Real
TTITLE5=The Hot 8 Brass Band - Rock With The Hot 8
TTITLE6=Rebirth Brass Band - Stereo
TTITLE7=The Hot 8 Brass Band - Sexual Healing
TTITLE8=The Hot 8 Brass Band - Get Up
TTITLE9=The Soul Rebels - Disco Tech
TTITLE10=The Soul Rebels - Nuthin' But A Party
TTITLE11=The Soul Rebels - Hey There Baby
TTITLE12=The Soul Rebels - Let It Roll
EXTD=
EXTT0=
EXTT1=
EXTT2=
EXTT3=
EXTT4=
EXTT5=
EXTT6=
EXTT7=
EXTT8=
EXTT9=
EXTT10=
EXTT11=
EXTT12=
PLAYORDER=
